<svg id="Layer_1" data-name="Layer 1" xmlns="http://www.w3.org/2000/svg" xmlns:xlink="http://www.w3.org/1999/xlink" viewBox="0 0 416.9 545.82"><defs><style>.cls-1,.cls-2,.cls-3,.cls-4,.cls-5{opacity:0.5;}.cls-1{fill:url(#linear-gradient);}.cls-2{fill:url(#linear-gradient-2);}.cls-3{fill:url(#linear-gradient-3);}.cls-4{fill:url(#linear-gradient-4);}.cls-5{fill:url(#linear-gradient-5);}.cls-6{fill:url(#linear-gradient-6);}.cls-7{fill:url(#linear-gradient-7);}.cls-8{fill:url(#linear-gradient-8);}.cls-9{fill:#fff;}.cls-10{fill:url(#linear-gradient-9);}.cls-11{fill:url(#linear-gradient-10);}.cls-12{fill:url(#linear-gradient-11);}.cls-13{fill:url(#linear-gradient-12);}.cls-14{fill:url(#linear-gradient-13);}.cls-15{fill:url(#linear-gradient-14);}.cls-16{fill:url(#linear-gradient-15);}.cls-17{fill:url(#linear-gradient-16);}.cls-18{fill:url(#linear-gradient-17);}.cls-19{fill:#f69a9a;}.cls-20{fill:#f9baba;}.cls-21{fill:url(#linear-gradient-18);}.cls-22{fill:url(#linear-gradient-19);}.cls-23{fill:url(#linear-gradient-20);}.cls-24{fill:url(#linear-gradient-21);}.cls-25{fill:url(#linear-gradient-22);}.cls-26{fill:url(#linear-gradient-23);}.cls-27{fill:url(#linear-gradient-24);}.cls-28{fill:#13182a;}.cls-29{fill:url(#linear-gradient-25);}.cls-30{fill:url(#linear-gradient-26);}.cls-31{fill:url(#linear-gradient-27);}.cls-32{fill:url(#linear-gradient-28);}.cls-33{fill:url(#linear-gradient-29);}.cls-34{fill:#532466;}.cls-35{fill:#f15e71;}.cls-36{fill:#a32a75;}.cls-37{fill:url(#linear-gradient-30);}.cls-38{fill:url(#linear-gradient-31);}.cls-39{fill:url(#linear-gradient-32);}.cls-40{fill:url(#linear-gradient-33);}.cls-41{fill:url(#linear-gradient-34);}.cls-42{fill:url(#linear-gradient-35);}.cls-43{fill:url(#linear-gradient-36);}.cls-44{fill:url(#linear-gradient-37);}.cls-45{fill:url(#linear-gradient-38);}.cls-46{fill:url(#linear-gradient-39);}.cls-47{fill:url(#linear-gradient-40);}.cls-48{fill:#d6c0dd;}.cls-49{fill:url(#linear-gradient-41);}.cls-50{fill:url(#linear-gradient-42);}.cls-51{fill:#c0a8d1;}.cls-52{fill:url(#linear-gradient-43);}.cls-53{fill:#f8aaa7;}.cls-54{fill:url(#linear-gradient-44);}.cls-55{fill:#444968;}.cls-56{fill:url(#linear-gradient-45);}.cls-57{fill:url(#linear-gradient-46);}.cls-58{fill:url(#linear-gradient-47);}.cls-59{fill:url(#linear-gradient-48);}.cls-60{fill:url(#linear-gradient-49);}.cls-61{fill:url(#linear-gradient-50);}.cls-62{fill:url(#linear-gradient-51);}.cls-63{fill:url(#linear-gradient-52);}.cls-64{fill:url(#linear-gradient-53);}.cls-65{fill:url(#linear-gradient-54);}.cls-66{fill:url(#linear-gradient-55);}.cls-67{fill:url(#linear-gradient-56);}.cls-68{fill:url(#linear-gradient-57);}.cls-69{fill:url(#linear-gradient-58);}.cls-70{fill:url(#linear-gradient-59);}.cls-71{fill:url(#linear-gradient-60);}.cls-72{fill:url(#linear-gradient-61);}.cls-73{fill:url(#linear-gradient-62);}.cls-74{fill:url(#linear-gradient-63);}.cls-75{fill:url(#linear-gradient-64);}.cls-76{fill:url(#linear-gradient-65);}.cls-77{fill:url(#linear-gradient-66);}.cls-78{fill:url(#linear-gradient-67);}.cls-79{fill:url(#linear-gradient-68);}.cls-80{fill:url(#linear-gradient-69);}.cls-81{fill:url(#linear-gradient-70);}.cls-82{fill:url(#linear-gradient-71);}.cls-83{fill:url(#linear-gradient-72);}.cls-84{fill:url(#linear-gradient-73);}.cls-85{fill:url(#linear-gradient-74);}.cls-86{fill:url(#linear-gradient-75);}.cls-87{fill:url(#linear-gradient-76);}.cls-88{fill:url(#linear-gradient-77);}.cls-89{fill:url(#linear-gradient-78);}.cls-90{fill:url(#linear-gradient-79);}.cls-91{fill:url(#linear-gradient-80);}.cls-92{fill:url(#linear-gradient-81);}.cls-93{fill:url(#linear-gradient-82);}.cls-94{fill:url(#linear-gradient-83);}.cls-95{fill:url(#linear-gradient-84);}.cls-96{fill:url(#linear-gradient-85);}.cls-97{fill:url(#linear-gradient-86);}.cls-98{fill:#f2eaf4;}.cls-99{fill:url(#linear-gradient-87);}.cls-100{fill:url(#linear-gradient-88);}.cls-101{fill:url(#linear-gradient-89);}.cls-102{fill:url(#linear-gradient-90);}.cls-103{fill:url(#linear-gradient-91);}.cls-104{fill:url(#linear-gradient-92);}.cls-105{fill:url(#linear-gradient-93);}.cls-106{fill:url(#linear-gradient-94);}</style><linearGradient id="linear-gradient" x1="418.22" y1="389.8" x2="335.55" y2="389.8" gradientUnits="userSpaceOnUse"><stop offset="0" stop-color="#29c2e5"/><stop offset="0.12" stop-color="#29c2e5" stop-opacity="0.98"/><stop offset="0.25" stop-color="#29c2e5" stop-opacity="0.92"/><stop offset="0.39" stop-color="#29c2e5" stop-opacity="0.82"/><stop offset="0.53" stop-color="#29c2e5" stop-opacity="0.68"/><stop offset="0.68" stop-color="#29c2e5" stop-opacity="0.5"/><stop offset="0.83" stop-color="#29c2e5" stop-opacity="0.28"/><stop offset="0.98" stop-color="#29c2e5" stop-opacity="0.03"/><stop offset="1" stop-color="#29c2e5" stop-opacity="0"/></linearGradient><linearGradient id="linear-gradient-2" x1="258.06" y1="520.95" x2="168.71" y2="520.95" xlink:href="#linear-gradient"/><linearGradient id="linear-gradient-3" x1="372.85" y1="510.97" x2="299.59" y2="510.97" xlink:href="#linear-gradient"/><linearGradient id="linear-gradient-4" x1="321.19" y1="450.21" x2="247.92" y2="450.21" xlink:href="#linear-gradient"/><linearGradient id="linear-gradient-5" x1="40.14" y1="349.5" x2="-145.47" y2="349.5" gradientTransform="matrix(0.87, -0.5, 1, 0.58, -129.56, 189.46)" xlink:href="#linear-gradient"/><linearGradient id="linear-gradient-6" x1="88.38" y1="221.78" x2="251.68" y2="221.78" gradientUnits="userSpaceOnUse"><stop offset="0" stop-color="#522467"/><stop offset="1" stop-color="#a72e76"/></linearGradient><linearGradient id="linear-gradient-7" x1="98.21" y1="225.55" x2="259.67" y2="225.55" gradientUnits="userSpaceOnUse"><stop offset="0" stop-color="#a72e76"/><stop offset="1" stop-color="#ba3079"/></linearGradient><linearGradient id="linear-gradient-8" x1="101.96" y1="225.12" x2="255.92" y2="225.12" gradientUnits="userSpaceOnUse"><stop offset="0" stop-color="#da3c80"/><stop offset="1" stop-color="#f9a240"/></linearGradient><linearGradient id="linear-gradient-9" x1="214.05" y1="85.48" x2="367.74" y2="85.48" gradientUnits="userSpaceOnUse"><stop offset="0" stop-color="#a892c5"/><stop offset="0.64" stop-color="#cb93be"/><stop offset="1" stop-color="#da94bb"/></linearGradient><linearGradient id="linear-gradient-10" x1="219.18" y1="86.93" x2="372.87" y2="86.93" gradientUnits="userSpaceOnUse"><stop offset="0" stop-color="#cbb2d6"/><stop offset="0.52" stop-color="#d0b5d7"/><stop offset="1" stop-color="#dabcda"/></linearGradient><linearGradient id="linear-gradient-11" x1="9.34" y1="257.59" x2="194.59" y2="257.59" gradientUnits="userSpaceOnUse"><stop offset="0" stop-color="#ef4781"/><stop offset="1" stop-color="#f47f58"/></linearGradient><linearGradient id="linear-gradient-12" x1="15.09" y1="260" x2="200.33" y2="260" gradientUnits="userSpaceOnUse"><stop offset="0" stop-color="#f47f55"/><stop offset="1" stop-color="#fbac34"/></linearGradient><linearGradient id="linear-gradient-13" x1="154.62" y1="243.34" x2="154.62" y2="126.88" gradientUnits="userSpaceOnUse"><stop offset="0" stop-color="#a72e76"/><stop offset="0.46" stop-color="#ac2e77"/><stop offset="0.98" stop-color="#b93079"/><stop offset="1" stop-color="#ba3079"/></linearGradient><linearGradient id="linear-gradient-14" x1="154.62" y1="338.06" x2="154.62" y2="221.6" xlink:href="#linear-gradient-7"/><linearGradient id="linear-gradient-15" x1="209.29" y1="235.81" x2="257.7" y2="235.81" gradientUnits="userSpaceOnUse"><stop offset="0" stop-color="#f2c6dd"/><stop offset="0.29" stop-color="#f3bbd6"/><stop offset="1" stop-color="#f5a5c8"/></linearGradient><linearGradient id="linear-gradient-16" x1="188.88" y1="293.76" x2="188.88" y2="372.06" gradientUnits="userSpaceOnUse"><stop offset="0.01" stop-color="#444968"/><stop offset="0.12" stop-color="#3d425f"/><stop offset="0.7" stop-color="#1f2439"/><stop offset="1" stop-color="#13182a"/></linearGradient><linearGradient id="linear-gradient-17" x1="153.32" y1="323.2" x2="221.26" y2="205.52" gradientUnits="userSpaceOnUse"><stop offset="0" stop-color="#f2c6dd"/><stop offset="0.42" stop-color="#f1cbe0"/><stop offset="0.9" stop-color="#efd8e9"/><stop offset="1" stop-color="#eedcec"/></linearGradient><linearGradient id="linear-gradient-18" x1="151.01" y1="310.1" x2="151.01" y2="218.47" xlink:href="#linear-gradient-15"/><linearGradient id="linear-gradient-19" x1="212.29" y1="291.84" x2="212.29" y2="319.13" xlink:href="#linear-gradient-15"/><linearGradient id="linear-gradient-20" x1="206.93" y1="222.31" x2="206.93" y2="201.35" xlink:href="#linear-gradient-15"/><linearGradient id="linear-gradient-21" x1="185.91" y1="227.32" x2="185.91" y2="199.31" xlink:href="#linear-gradient-15"/><linearGradient id="linear-gradient-22" x1="141.16" y1="300.05" x2="177.16" y2="300.05" gradientUnits="userSpaceOnUse"><stop offset="0" stop-color="#f4d5e6"/><stop offset="0.8" stop-color="#f0daea"/><stop offset="1" stop-color="#eedcec"/></linearGradient><linearGradient id="linear-gradient-23" x1="233.72" y1="264.68" x2="259.01" y2="264.68" xlink:href="#linear-gradient-22"/><linearGradient id="linear-gradient-24" x1="189.97" y1="140.75" x2="189.97" y2="205.15" gradientUnits="userSpaceOnUse"><stop offset="0.01" stop-color="#444968"/><stop offset="0.1" stop-color="#373c58"/><stop offset="0.26" stop-color="#272c43"/><stop offset="0.44" stop-color="#1c2135"/><stop offset="0.65" stop-color="#151a2d"/><stop offset="1" stop-color="#13182a"/></linearGradient><linearGradient id="linear-gradient-25" x1="171.02" y1="248.23" x2="189.25" y2="248.23" gradientUnits="userSpaceOnUse"><stop offset="0" stop-color="#f5a5c8"/><stop offset="1" stop-color="#f5a5c8"/></linearGradient><linearGradient id="linear-gradient-26" x1="205.75" y1="306.46" x2="205.75" y2="219.77" xlink:href="#linear-gradient-7"/><linearGradient id="linear-gradient-27" x1="275.3" y1="140.36" x2="355.68" y2="140.36" xlink:href="#linear-gradient-17"/><linearGradient id="linear-gradient-28" x1="272.81" y1="192.03" x2="272.81" y2="132.19" gradientUnits="userSpaceOnUse"><stop offset="0" stop-color="#f280b3"/><stop offset="0.26" stop-color="#f285b6"/><stop offset="0.56" stop-color="#f492be"/><stop offset="0.87" stop-color="#f6a9cb"/><stop offset="1" stop-color="#f7b5d2"/></linearGradient><linearGradient id="linear-gradient-29" x1="270.31" y1="110.44" x2="355.68" y2="110.44" xlink:href="#linear-gradient-28"/><linearGradient id="linear-gradient-30" x1="41.16" y1="310.89" x2="77.57" y2="310.89" xlink:href="#linear-gradient-17"/><linearGradient id="linear-gradient-31" x1="85.23" y1="243.43" x2="106.12" y2="243.43" xlink:href="#linear-gradient-17"/><linearGradient id="linear-gradient-32" x1="85.23" y1="266.89" x2="106.12" y2="266.89" xlink:href="#linear-gradient-17"/><linearGradient id="linear-gradient-33" x1="85.23" y1="290.28" x2="106.12" y2="290.28" xlink:href="#linear-gradient-17"/><linearGradient id="linear-gradient-34" x1="85.23" y1="313.74" x2="106.12" y2="313.74" xlink:href="#linear-gradient-17"/><linearGradient id="linear-gradient-35" x1="85.23" y1="337.13" x2="106.12" y2="337.13" xlink:href="#linear-gradient-17"/><linearGradient id="linear-gradient-36" x1="31.44" y1="389.65" x2="31.44" y2="214.76" xlink:href="#linear-gradient-17"/><linearGradient id="linear-gradient-37" x1="30.1" y1="192.39" x2="112.74" y2="192.39" xlink:href="#linear-gradient-17"/><linearGradient id="linear-gradient-38" x1="224.99" y1="459.09" x2="240.35" y2="459.09" gradientUnits="userSpaceOnUse"><stop offset="0" stop-color="#a892c5"/><stop offset="0.4" stop-color="#a086be"/><stop offset="1" stop-color="#9777b5"/></linearGradient><linearGradient id="linear-gradient-39" x1="180.43" y1="477.79" x2="198.67" y2="477.79" gradientUnits="userSpaceOnUse"><stop offset="0" stop-color="#b796c6"/><stop offset="0.31" stop-color="#bb9bc8"/><stop offset="0.67" stop-color="#c8a8d0"/><stop offset="1" stop-color="#dabcda"/></linearGradient><linearGradient id="linear-gradient-40" x1="187.46" y1="494.29" x2="187.46" y2="467.92" xlink:href="#linear-gradient-38"/><linearGradient id="linear-gradient-41" x1="183.54" y1="479.16" x2="209.18" y2="479.16" xlink:href="#linear-gradient-22"/><linearGradient id="linear-gradient-42" x1="182.65" y1="482.99" x2="195.7" y2="482.99" xlink:href="#linear-gradient-15"/><linearGradient id="linear-gradient-43" x1="197.67" y1="467.39" x2="200.82" y2="467.39" gradientUnits="userSpaceOnUse"><stop offset="0.01" stop-color="#444968"/><stop offset="0.49" stop-color="#2b3048"/><stop offset="1" stop-color="#13182a"/></linearGradient><linearGradient id="linear-gradient-44" x1="199.44" y1="461.56" x2="203.65" y2="461.56" xlink:href="#linear-gradient-24"/><linearGradient id="linear-gradient-45" x1="189.52" y1="504.29" x2="204.76" y2="504.29" xlink:href="#linear-gradient-17"/><linearGradient id="linear-gradient-46" x1="213.38" y1="499.39" x2="213.38" y2="538.13" xlink:href="#linear-gradient-43"/><linearGradient id="linear-gradient-47" x1="207.05" y1="485.66" x2="246.28" y2="485.66" xlink:href="#linear-gradient-39"/><linearGradient id="linear-gradient-48" x1="224.99" y1="424.13" x2="224.99" y2="455.5" xlink:href="#linear-gradient-24"/><linearGradient id="linear-gradient-49" x1="198.67" y1="476.89" x2="219.68" y2="476.89" xlink:href="#linear-gradient-38"/><linearGradient id="linear-gradient-50" x1="230.76" y1="506.95" x2="214.5" y2="506.95" xlink:href="#linear-gradient-38"/><linearGradient id="linear-gradient-51" x1="228.27" y1="500.8" x2="214.5" y2="500.8" xlink:href="#linear-gradient-38"/><linearGradient id="linear-gradient-52" x1="213.46" y1="457.68" x2="232.37" y2="457.68" xlink:href="#linear-gradient-38"/><linearGradient id="linear-gradient-53" x1="255.78" y1="408.02" x2="274.02" y2="408.02" xlink:href="#linear-gradient-39"/><linearGradient id="linear-gradient-54" x1="262.81" y1="424.52" x2="262.81" y2="398.15" xlink:href="#linear-gradient-38"/><linearGradient id="linear-gradient-55" x1="258.89" y1="409.39" x2="284.53" y2="409.39" xlink:href="#linear-gradient-22"/><linearGradient id="linear-gradient-56" x1="258" y1="413.21" x2="271.05" y2="413.21" xlink:href="#linear-gradient-15"/><linearGradient id="linear-gradient-57" x1="273.02" y1="397.62" x2="276.17" y2="397.62" xlink:href="#linear-gradient-43"/><linearGradient id="linear-gradient-58" x1="274.79" y1="391.78" x2="279" y2="391.78" xlink:href="#linear-gradient-24"/><linearGradient id="linear-gradient-59" x1="300.5" y1="394.48" x2="316.29" y2="394.48" gradientUnits="userSpaceOnUse"><stop offset="0" stop-color="#f280b3"/><stop offset="0.62" stop-color="#e66895"/><stop offset="1" stop-color="#e05e87"/></linearGradient><linearGradient id="linear-gradient-60" x1="256.65" y1="437.55" x2="280.35" y2="437.55" xlink:href="#linear-gradient-17"/><linearGradient id="linear-gradient-61" x1="254.6" y1="443.44" x2="296.62" y2="443.44" xlink:href="#linear-gradient-43"/><linearGradient id="linear-gradient-62" x1="283.98" y1="427.1" x2="283.98" y2="467.95" xlink:href="#linear-gradient-43"/><linearGradient id="linear-gradient-63" x1="302.53" y1="362.53" x2="302.53" y2="389.07" xlink:href="#linear-gradient-24"/><linearGradient id="linear-gradient-64" x1="304.96" y1="364.68" x2="309.21" y2="372.03" gradientUnits="userSpaceOnUse"><stop offset="0" stop-color="#f280b3"/><stop offset="0.29" stop-color="#f07cae"/><stop offset="0.62" stop-color="#eb72a1"/><stop offset="0.96" stop-color="#e1608a"/><stop offset="1" stop-color="#e05e87"/></linearGradient><linearGradient id="linear-gradient-65" x1="315.51" y1="358.45" x2="315.51" y2="380.13" xlink:href="#linear-gradient-24"/><linearGradient id="linear-gradient-66" x1="301.18" y1="390.82" x2="301.18" y2="439.67" xlink:href="#linear-gradient-64"/><linearGradient id="linear-gradient-67" x1="279.14" y1="406.95" x2="297.85" y2="406.95" gradientUnits="userSpaceOnUse"><stop offset="0" stop-color="#f280b3"/><stop offset="0.15" stop-color="#ef79ab"/><stop offset="0.68" stop-color="#e46591"/><stop offset="1" stop-color="#e05e87"/></linearGradient><linearGradient id="linear-gradient-68" x1="303.67" y1="462.79" x2="321.91" y2="462.79" xlink:href="#linear-gradient-39"/><linearGradient id="linear-gradient-69" x1="310.7" y1="479.29" x2="310.7" y2="452.92" xlink:href="#linear-gradient-38"/><linearGradient id="linear-gradient-70" x1="306.78" y1="464.16" x2="332.41" y2="464.16" xlink:href="#linear-gradient-22"/><linearGradient id="linear-gradient-71" x1="305.89" y1="467.99" x2="318.94" y2="467.99" xlink:href="#linear-gradient-15"/><linearGradient id="linear-gradient-72" x1="320.91" y1="452.39" x2="324.06" y2="452.39" xlink:href="#linear-gradient-43"/><linearGradient id="linear-gradient-73" x1="322.68" y1="446.56" x2="326.89" y2="446.56" xlink:href="#linear-gradient-24"/><linearGradient id="linear-gradient-74" x1="304.82" y1="503.66" x2="346.84" y2="503.66" xlink:href="#linear-gradient-43"/><linearGradient id="linear-gradient-75" x1="353.82" y1="460.82" x2="367.14" y2="460.82" gradientUnits="userSpaceOnUse"><stop offset="0" stop-color="#eb7d49"/><stop offset="1" stop-color="#f15e64"/></linearGradient><linearGradient id="linear-gradient-76" x1="334.21" y1="497.16" x2="334.21" y2="528.17" xlink:href="#linear-gradient-43"/><linearGradient id="linear-gradient-77" x1="333.04" y1="483.03" x2="365.74" y2="483.03" gradientUnits="userSpaceOnUse"><stop offset="0.01" stop-color="#f3775f"/><stop offset="1" stop-color="#f9a240"/></linearGradient><linearGradient id="linear-gradient-78" x1="341.84" y1="452.2" x2="358.17" y2="452.2" xlink:href="#linear-gradient-75"/><linearGradient id="linear-gradient-79" x1="348.81" y1="419.64" x2="348.81" y2="448.55" xlink:href="#linear-gradient-24"/><linearGradient id="linear-gradient-80" x1="323.49" y1="468.01" x2="342.96" y2="468.01" xlink:href="#linear-gradient-75"/><linearGradient id="linear-gradient-81" x1="359.04" y1="445.63" x2="359.04" y2="477.65" xlink:href="#linear-gradient-24"/><linearGradient id="linear-gradient-82" x1="349.85" y1="446.57" x2="357.8" y2="446.57" xlink:href="#linear-gradient-75"/><linearGradient id="linear-gradient-83" x1="371.72" y1="399.54" x2="390.3" y2="399.54" xlink:href="#linear-gradient-24"/><linearGradient id="linear-gradient-84" x1="346.89" y1="383.51" x2="414.2" y2="383.51" xlink:href="#linear-gradient-16"/><linearGradient id="linear-gradient-85" x1="343.83" y1="341.21" x2="376.31" y2="341.21" xlink:href="#linear-gradient-75"/><linearGradient id="linear-gradient-86" x1="386.02" y1="374.2" x2="386.02" y2="318.7" xlink:href="#linear-gradient-77"/><linearGradient id="linear-gradient-87" x1="340.34" y1="364.69" x2="356.1" y2="364.69" xlink:href="#linear-gradient-38"/><linearGradient id="linear-gradient-88" x1="352.77" y1="369.23" x2="373.39" y2="369.23" xlink:href="#linear-gradient-38"/><linearGradient id="linear-gradient-89" x1="340.34" y1="355.63" x2="370.31" y2="355.63" xlink:href="#linear-gradient-39"/><linearGradient id="linear-gradient-90" x1="371.85" y1="359.63" x2="371.85" y2="377.76" gradientUnits="userSpaceOnUse"><stop offset="0" stop-color="#8b7fbc"/><stop offset="0.46" stop-color="#806fb3"/><stop offset="0.99" stop-color="#7660aa"/></linearGradient><linearGradient id="linear-gradient-91" x1="380.27" y1="350.74" x2="408.83" y2="350.74" xlink:href="#linear-gradient-75"/><linearGradient id="linear-gradient-92" x1="380.88" y1="294.96" x2="380.88" y2="316.77" xlink:href="#linear-gradient-24"/><linearGradient id="linear-gradient-93" x1="339.46" y1="387.33" x2="366.07" y2="387.33" xlink:href="#linear-gradient-24"/><linearGradient id="linear-gradient-94" x1="358.7" y1="392.78" x2="412.89" y2="392.78" xlink:href="#linear-gradient-16"/></defs><title>Artboard 1</title><path class="cls-1" d="M343.47,371.08c-4.45,5,.7,8.84-4.23,12.68-4,3.08-6.59,8.75,2.17,12.41,5.5,2.29,11.52,1.35,17.29,2.53,6.56,1.35,13,2.64,18.95,8.21,8.4,7.79,12.68,4.37,20.29,3.48s14.94.4,19.48-8.62c2.82-5.6-1.83-13.61-13.43-19.19S352.77,360.7,343.47,371.08Z"/><path class="cls-2" d="M208.29,497.72s-28.69,12.66-36.6,21.41c-8.17,9,1.89,14.34,12.81,19s34.95,11,48.17,5.62,31.52-21.34,23.37-28.34a95.55,95.55,0,0,0-18-11.75S221.23,491.84,208.29,497.72Z"/><path class="cls-3" d="M328.69,489.18c-7.78,2.7-16.91,10.1-25.52,16.08-9.35,6.5,1.47,15.11,11.18,19.26s27.71,12.49,39.47,7.68,25-15.59,16.18-23.41C362.86,502.43,343.54,484,328.69,489.18Z"/><path class="cls-4" d="M277,428.42c-7.78,2.7-16.91,10.11-25.52,16.08-9.35,6.5,1.48,15.11,11.18,19.26s27.72,12.49,39.47,7.68,25-15.59,16.18-23.41C311.19,441.67,291.87,423.27,277,428.42Z"/><polygon class="cls-5" points="260.5 374.54 99.51 467.2 88.19 460.66 249.18 368 260.5 374.54"/><path class="cls-6" d="M251.68,38l-9.94-5.65-.12-.07-.35-.2h0a16.48,16.48,0,0,0-16.19.65l-116,67C97.66,106.24,88.38,124,88.38,139.08V393.84c0,6.51,2.59,11,6.43,13.51h0l.08,0c.17.11.35.2.53.3l9.86,5.64,8.37-6.6L229.22,340c11.34-6.55,20.61-24.28,20.61-39.39V48.08a21.6,21.6,0,0,0-.87-6.15l.87.53Z"/><path class="cls-7" d="M239.05,345.61,123.49,412.33c-11.34,6.55-25.28,2.22-25.28-12.9V144.68c0-15.12,9.28-32.85,20.62-39.39l116.05-67c11.34-6.54,24.79.28,24.79,15.39V306.22C259.67,321.34,250.39,339.06,239.05,345.61Z"/><path class="cls-8" d="M235.43,342.8,122.45,408c-11.27,6.5-20.49.67-20.49-14.35V146.38c0-15,9.22-32.64,20.49-39.14L235.43,42c11.27-6.51,20.49.46,20.49,15.48v247.3C255.92,319.82,246.7,336.29,235.43,342.8Z"/><polygon class="cls-9" points="247.84 314.29 110.05 393.85 110.05 136.6 247.84 57.05 247.84 314.29"/><path class="cls-9" d="M171.49,89.76A6.06,6.06,0,0,1,169,94.61c-1.4.81-2.53,0-2.53-1.92A6.08,6.08,0,0,1,169,87.84C170.36,87,171.49,87.89,171.49,89.76Z"/><path class="cls-9" d="M196.83,78.51l-16.69,9.65c-1.4.8-2.54-.06-2.54-1.92h0a6.07,6.07,0,0,1,2.54-4.85l16.69-9.65c1.4-.8,2.54.06,2.54,1.92h0A6.07,6.07,0,0,1,196.83,78.51Z"/><path class="cls-9" d="M195.53,351.28,178,361.39a6.54,6.54,0,0,0-2.72,5.19c0,2,1.23,2.92,2.72,2.06l17.51-10.11a6.51,6.51,0,0,0,2.72-5.19C198.25,351.34,197,350.42,195.53,351.28Z"/><path class="cls-10" d="M367.74,11.72l-4.44-2.5a9.65,9.65,0,0,0-1.26-.7l0,0h0a9.72,9.72,0,0,0-9,.4L234.76,77.15A41.42,41.42,0,0,0,214.05,113v14.32a9.72,9.72,0,0,0,3.91,7.86h0a9.71,9.71,0,0,0,1.95,1.13l4.24,2.47,4.67-2.93,6.55-3.79v28.39l5.12,2.92,4.52-17.8-2.2.66,13.85-26.46L347,67.62a41.42,41.42,0,0,0,20.7-35.86V17.43a9.91,9.91,0,0,0-.68-3.61Z"/><path class="cls-11" d="M358.09,11.81,239.88,80.06a41.42,41.42,0,0,0-20.7,35.86v14.33A9.85,9.85,0,0,0,234,138.78L240.5,135v28.39l21.3-40.69,90.37-52.17a41.42,41.42,0,0,0,20.7-35.86V20.35A9.86,9.86,0,0,0,358.09,11.81Z"/><path class="cls-9" d="M243.51,108c.92-.54,1.61,0,1.61,1.31a3.88,3.88,0,0,1-1.61,3.17c-.93.53-1.62,0-1.62-1.3A3.83,3.83,0,0,1,243.51,108Z"/><path class="cls-9" d="M249,104.86c.92-.54,1.61,0,1.61,1.31a3.88,3.88,0,0,1-1.61,3.17c-.93.53-1.62,0-1.62-1.3A3.84,3.84,0,0,1,249,104.86Z"/><path class="cls-9" d="M254.4,101.72c.93-.54,1.62,0,1.62,1.31a3.83,3.83,0,0,1-1.62,3.16c-.92.54-1.61,0-1.61-1.3A3.84,3.84,0,0,1,254.4,101.72Z"/><path class="cls-9" d="M259.85,98.57c.93-.54,1.62,0,1.62,1.31a3.83,3.83,0,0,1-1.62,3.16c-.92.54-1.61,0-1.61-1.29A3.86,3.86,0,0,1,259.85,98.57Z"/><path class="cls-9" d="M265.3,95.42c.93-.53,1.62,0,1.62,1.32a3.83,3.83,0,0,1-1.62,3.16c-.93.54-1.62,0-1.62-1.3A3.86,3.86,0,0,1,265.3,95.42Z"/><path class="cls-9" d="M270.75,92.27c.93-.53,1.62,0,1.62,1.32a3.83,3.83,0,0,1-1.62,3.16c-.93.54-1.62,0-1.62-1.29A3.87,3.87,0,0,1,270.75,92.27Z"/><path class="cls-9" d="M276.2,89.13c.93-.53,1.62,0,1.62,1.32a3.85,3.85,0,0,1-1.62,3.16c-.93.54-1.62,0-1.62-1.3A3.86,3.86,0,0,1,276.2,89.13Z"/><path class="cls-9" d="M281.65,86c.92-.53,1.61,0,1.61,1.32a3.85,3.85,0,0,1-1.61,3.16c-.93.54-1.62,0-1.62-1.29A3.86,3.86,0,0,1,281.65,86Z"/><path class="cls-9" d="M287.09,82.84c.93-.54,1.62,0,1.62,1.31a3.85,3.85,0,0,1-1.62,3.17c-.93.53-1.61,0-1.61-1.3A3.85,3.85,0,0,1,287.09,82.84Z"/><path class="cls-9" d="M292.54,79.69c.93-.53,1.62,0,1.62,1.32a3.83,3.83,0,0,1-1.62,3.16c-.93.54-1.62,0-1.62-1.29A3.86,3.86,0,0,1,292.54,79.69Z"/><path class="cls-9" d="M298,76.55c.93-.54,1.62,0,1.62,1.31A3.85,3.85,0,0,1,298,81c-.93.53-1.62,0-1.62-1.3A3.84,3.84,0,0,1,298,76.55Z"/><path class="cls-9" d="M303.44,73.4c.92-.53,1.61,0,1.61,1.32a3.85,3.85,0,0,1-1.61,3.16c-.93.54-1.62,0-1.62-1.29A3.86,3.86,0,0,1,303.44,73.4Z"/><path class="cls-9" d="M308.89,70.26c.92-.54,1.61,0,1.61,1.31a3.88,3.88,0,0,1-1.61,3.17c-.93.53-1.62,0-1.62-1.3A3.84,3.84,0,0,1,308.89,70.26Z"/><path class="cls-9" d="M314.33,67.11c.93-.53,1.62,0,1.62,1.32a3.83,3.83,0,0,1-1.62,3.16c-.92.54-1.61,0-1.61-1.3A3.87,3.87,0,0,1,314.33,67.11Z"/><path class="cls-9" d="M319.78,64c.93-.54,1.62,0,1.62,1.31a3.86,3.86,0,0,1-1.62,3.17c-.92.53-1.61,0-1.61-1.3A3.86,3.86,0,0,1,319.78,64Z"/><path class="cls-9" d="M325.23,60.82c.93-.53,1.62,0,1.62,1.32a3.83,3.83,0,0,1-1.62,3.16c-.93.54-1.62,0-1.62-1.3A3.86,3.86,0,0,1,325.23,60.82Z"/><path class="cls-9" d="M330.68,57.68c.93-.54,1.62,0,1.62,1.31a3.86,3.86,0,0,1-1.62,3.17c-.93.53-1.62,0-1.62-1.3A3.83,3.83,0,0,1,330.68,57.68Z"/><path class="cls-9" d="M336.13,54.53c.93-.54,1.62,0,1.62,1.31A3.85,3.85,0,0,1,336.13,59c-.93.54-1.62,0-1.62-1.3A3.86,3.86,0,0,1,336.13,54.53Z"/><path class="cls-9" d="M341.58,51.39c.92-.54,1.61,0,1.61,1.31a3.88,3.88,0,0,1-1.61,3.17c-.93.53-1.62,0-1.62-1.3A3.83,3.83,0,0,1,341.58,51.39Z"/><path class="cls-9" d="M347,48.24c.92-.54,1.61,0,1.61,1.31A3.87,3.87,0,0,1,347,52.72c-.94.53-1.62,0-1.62-1.3A3.83,3.83,0,0,1,347,48.24Z"/><path class="cls-9" d="M352.47,45.1c.93-.54,1.62,0,1.62,1.31a3.86,3.86,0,0,1-1.62,3.17c-.93.53-1.61,0-1.61-1.3A3.82,3.82,0,0,1,352.47,45.1Z"/><path class="cls-9" d="M357.92,42c.93-.54,1.62,0,1.62,1.31a3.86,3.86,0,0,1-1.62,3.17c-.93.53-1.61,0-1.61-1.3A3.83,3.83,0,0,1,357.92,42Z"/><path class="cls-12" d="M192.25,121.67l2.07-1.19-7.57-4.38h0c-3.42-1.57-7.71-1.24-12.36,1.44L29.56,201.16C18.44,207.58,9.34,225,9.34,239.79V380.55c0,7.95,2.64,13.7,6.79,16.25h0L21.84,400l3.33-2.31a18.9,18.9,0,0,0,4.39-1.87l144.81-83.61c11.12-6.42,20.22-23.8,20.22-38.62V132.84A24.52,24.52,0,0,0,192.25,121.67Z"/><path class="cls-13" d="M180.12,315.53,35.31,399.14c-11.12,6.42-20.22-.46-20.22-15.29V243.09c0-14.82,9.1-32.2,20.22-38.62l144.81-83.61c11.12-6.42,20.21.46,20.21,15.28V276.9C200.33,291.73,191.24,309.11,180.12,315.53Z"/><polygon class="cls-14" points="186.19 206.89 123.05 243.34 123.05 163.33 186.19 126.88 186.19 206.89"/><polygon class="cls-15" points="186.19 301.61 123.05 338.06 123.05 258.05 186.19 221.6 186.19 301.61"/><path class="cls-16" d="M232.73,207.62c10.19,19.06,27.43,45,24.67,62.75-10.93-3.48-12-4.52-18.18,4.19-8-8.7-24.67-34-24.67-34L209.29,199S223.81,190.93,232.73,207.62Z"/><path class="cls-17" d="M147.78,372.06c43.85-25.47,55.59-31.37,82.2-47.46-.57-13.38-3.09-21.47-3.09-21.47s-57.19-17.26-55.59-4.93c0,0-20.29,20.93-21.81,56.42C149.3,359,148.1,365.37,147.78,372.06Z"/><path class="cls-18" d="M150.53,298.57c3.73-18.46-7.82-43.06-6.29-64.52,1.87-6.17-1.94-10.59,2.43-15.16,8.56-8.92,26.56-15.37,26.56-15.37l29-.53s4.31-8.78,13.47,0c19.35,18.57,17.29,58.17,16.18,78.14-1,18.16,4,16.4-2.82,27.07-3.92,6.18-42.8,27.88-66.63,19.84C146.52,322.67,149.86,301.88,150.53,298.57Z"/><path class="cls-19" d="M199,198.85l2.61,15.21s1.74,5.59-.79,10.12c-6-1.88-11.91-3.72-17.43-6.62a41,41,0,0,1-11.09-8.82l4.67-25.9Z"/><path class="cls-20" d="M174.37,154.38c6.28-8,24.31-14.73,36.06,2.66,12.32,18.23.67,48-10.12,46.29-6-1-19.65-6.48-25.61-16.21C168,176.16,169.5,160.59,174.37,154.38Z"/><path class="cls-21" d="M165.87,300.35a18.44,18.44,0,0,1-9.36,8.67c-5.74,3-5.25-1.18-12.41-2.21-4.38-2.86-10.37-19.71-11.56-37.57-1.67-25.12-.94-43.7,14.13-50.35,8.27-3.64,15.44,17.12,17.84,27.87,1.75,7.8,6.25,30.36,5.52,44.5C169.77,296.2,167.08,297.46,165.87,300.35Z"/><path class="cls-22" d="M212.92,295.15a108.16,108.16,0,0,1,2.67,11.31,63.33,63.33,0,0,1,.7,10.91l-3.37,1.76a125,125,0,0,0-2-14.95c-1.61-7.47-2.62-12.34-2.62-12.34Z"/><path class="cls-23" d="M206.21,201.35l7.94,11.58-13.34,9.38s.33-11.1-1.11-19.32C202.78,204.16,205.56,202.08,206.21,201.35Z"/><path class="cls-24" d="M174,199.31s9.5,8.47,14.39,12.35,10,7.3,12.43,10.65c-9.51,2.22-18.79,5-18.79,5s-11.1-19.35-11-21.58S174,199.31,174,199.31Z"/><path class="cls-25" d="M141.4,304.26c-2.09-10.5,9.85-26.64,25.43-18.34,19.11,10.17,6.76,24.76,1.94,27.43C153.36,321.9,142.7,310.82,141.4,304.26Z"/><path class="cls-26" d="M254.6,248.62c-.67-.45-10.65-1.37-16.17,3.13s-7.15,22.81.46,27.43c7.88,4.77,17.64-.2,19.49-4.62C261,268.33,254.6,248.62,254.6,248.62Z"/><path class="cls-27" d="M197.44,172.93c10.13-.93,14.34-4.75,16.71-8.88,7.31-17.92-15-25.22-29.41-22.87s-20.67,19.76-20.38,27.67a22.51,22.51,0,0,0,10.34,18.27s-1.57-6.31-.18-9.05c1.19-2.34,4.93-2.75,6.19,1.42,0,0,2.35,22.09,17.43,25.25s14.78-13.21,14.78-13.21-4.25,7.28-11.32,7.56c-5.81.22-9.67-2.74-13.07-7.56-1.37-1.95-4.76-11.74-4.76-11.74l-1.27-8.33A40.37,40.37,0,0,0,197.44,172.93Z"/><path class="cls-28" d="M229.08,308.2l.33,7.27s-21.16,19.3-45.62,18.4-30.37-2.64-30.37-2.64l1.62-8s7.41,4.84,33.49,2.66S229.08,308.2,229.08,308.2Z"/><polygon class="cls-29" points="188.23 243.92 189.25 248.23 171.81 252.55 171.02 248.23 188.23 243.92"/><path class="cls-20" d="M243.94,254.14c3.09-9.8,15.85-25.85,17.42-30.54.81-2.44,2.71-7.34,3.6-10,1.2-3.6,6-5.65,11.77-8.45s6.65-1.17,4.59,2.22c-1.5,2.47-5.27,3.23-4.59,3.87,2.41,2.3,4.93,3.27,12,2.54,5.8-.61,9-4.77,13.8-3.29s-2.15,13.18-9,15.38-15.08.93-16.28,1.73c-.43.28-1.27,2.3-1.68,3.13-3.85,12.4-7.16,27.73-14.53,39.17-8.68,13.46-19.28,8.55-21.19,3.05S242.14,259.82,243.94,254.14Z"/><path class="cls-20" d="M220.13,323a44.42,44.42,0,0,0-9.79-.5,21.38,21.38,0,0,1,3.42-2.11c4-2.14,3-4.71-.85-4.11s-4.74.54-10.4,3.58c-1.83,1-3.19,1.79-4.26,2.46a8.77,8.77,0,0,1-3-2c-5.53-5.47-16.56-20.39-22.34-24s-10.87-4.49-15.65-2.44c-3,1.27-9.59,3.36-7.26,12.51,2.51,9.89,13,14.63,32.45,25.54S221,345.8,229.54,340,233.16,325.11,220.13,323Z"/><path class="cls-30" d="M209.29,241.14c-2-6.44-3.5-10.34-4.51-12.68a20.66,20.66,0,0,0,.29-2.6,31.4,31.4,0,0,0-.65-6.09l-3.61,2.54a17,17,0,0,0-6.49,1.76,15.06,15.06,0,0,0,2.49,4.79,10.59,10.59,0,0,0,3.05,2.93c.42,3.89,1.1,9.9,1.87,16.44,1.33,11.21-1.39,50.94-1.39,50.94l8.95,7.29a71.07,71.07,0,0,0,7.89-13.71C217.18,289.4,213.09,253.23,209.29,241.14Z"/><polygon class="cls-31" points="355.68 145.62 275.3 192.03 275.3 135.1 355.68 88.7 355.68 145.62"/><polygon class="cls-32" points="275.3 135.1 270.31 132.19 270.31 189.11 275.3 192.03 275.3 135.1"/><polygon class="cls-33" points="355.68 88.7 350.69 85.78 270.31 132.19 275.3 135.1 355.68 88.7"/><path class="cls-34" d="M346.78,105.44l-64.89,37.47c-.83.47-1.51,0-1.51-1.14h0a3.64,3.64,0,0,1,1.51-2.89l64.89-37.46c.83-.48,1.51,0,1.51,1.14h0A3.63,3.63,0,0,1,346.78,105.44Z"/><path class="cls-34" d="M325.91,125.93l-44,25.41c-.83.48-1.51,0-1.51-1.14h0a3.63,3.63,0,0,1,1.51-2.88l44-25.42c.83-.48,1.51,0,1.51,1.14h0A3.64,3.64,0,0,1,325.91,125.93Z"/><polygon class="cls-35" points="289.77 179.38 284.45 182.45 284.45 162.77 289.77 159.69 289.77 179.38"/><polygon class="cls-36" points="300.55 173.16 295.22 176.23 295.22 151.85 300.55 148.77 300.55 173.16"/><polygon class="cls-35" points="311.32 166.94 305.99 170.01 305.99 155.32 311.32 152.24 311.32 166.94"/><polygon class="cls-35" points="322.18 160.67 316.86 163.74 316.86 137.31 322.18 134.23 322.18 160.67"/><polygon class="cls-35" points="332.95 154.45 327.63 157.52 327.63 137.84 332.95 134.76 332.95 154.45"/><polygon class="cls-35" points="343.73 148.23 338.4 151.3 338.4 136.64 343.73 133.57 343.73 148.23"/><polygon class="cls-9" points="112.73 342.99 32.79 389.65 32.79 216.68 112.73 170.01 112.73 342.99"/><polygon class="cls-37" points="77.57 245.7 41.16 266.95 41.16 376.09 77.57 354.84 77.57 245.7"/><polygon class="cls-38" points="85.23 241.28 85.23 257.77 106.12 245.58 106.12 229.09 85.23 241.28"/><polygon class="cls-39" points="85.23 264.74 85.23 281.23 106.12 269.03 106.12 252.55 85.23 264.74"/><polygon class="cls-40" points="85.23 288.14 85.23 304.62 106.12 292.43 106.12 275.94 85.23 288.14"/><polygon class="cls-41" points="85.23 311.59 85.23 328.08 106.12 315.88 106.12 299.4 85.23 311.59"/><polygon class="cls-42" points="85.23 334.99 85.23 351.47 106.12 339.28 106.12 322.79 85.23 334.99"/><path class="cls-34" d="M104.81,190l-64.1,37c-1.37.8-2.5-.05-2.5-1.89h0a6,6,0,0,1,2.5-4.77l64.1-37c1.38-.79,2.5.06,2.5,1.89h0A6,6,0,0,1,104.81,190Z"/><path class="cls-34" d="M104.81,206.05l-64.1,37c-1.37.8-2.5-.05-2.5-1.88h0a6,6,0,0,1,2.5-4.78l64.1-37c1.38-.79,2.5.06,2.5,1.89h0A6,6,0,0,1,104.81,206.05Z"/><path class="cls-34" d="M104.81,221.31l-64.1,37c-1.37.79-2.5-.06-2.5-1.89h0a6,6,0,0,1,2.5-4.77l64.1-37c1.38-.79,2.5.06,2.5,1.89h0A6,6,0,0,1,104.81,221.31Z"/><polygon class="cls-43" points="32.79 389.65 30.1 387.73 30.1 214.76 32.79 216.68 32.79 389.65"/><polygon class="cls-44" points="112.73 170.01 110.05 168.1 30.1 214.76 32.79 216.68 112.73 170.01"/><path class="cls-45" d="M228.27,450.73s11.36-2,12.06,11-15.34.42-15.34.42Z"/><path class="cls-46" d="M197,464.47s-1.18-3.77-3.36-3.1a85.84,85.84,0,0,0-13.23,6.7c.45.9,13.81,26.22,13.81,26.22l4.43-2.8Z"/><path class="cls-47" d="M183.54,471.22a6.75,6.75,0,0,0-2-3.07c-1.29-.85-1.92.88-1.28,2.12s2.41,2.93,3.79,5.6c2.41,4.68,10.21,18.42,10.21,18.42l.69-.44Z"/><polygon class="cls-48" points="208.29 488 194.81 494.75 182.65 472.12 196.13 465.37 208.29 488"/><polygon class="cls-49" points="209.18 487.1 195.7 493.85 183.54 471.22 197.01 464.47 209.18 487.1"/><polygon class="cls-50" points="183.54 471.22 182.65 472.12 194.81 494.75 195.7 493.85 183.54 471.22"/><polygon class="cls-51" points="208.29 488 209.18 487.1 195.7 493.85 194.81 494.75 208.29 488"/><path class="cls-28" d="M181.52,513.76s18.4-9.93,22.25-10c8.09-11.81,15.22-16.71,16.14-16.17,5.16,3,.82,31.52.82,31.52S185.11,519.66,181.52,513.76Z"/><polygon class="cls-52" points="199.31 464.94 198.14 467.72 197.67 469.85 199.16 468.25 200.82 465.24 199.31 464.94"/><path class="cls-20" d="M215.79,478.89c1.56-2.23,3.2-4.41,4.74-6.67-3.21-4.52-10.53-9-12.6-11.47-2.35-2.8-4.69-1.94-6.82.43a28.89,28.89,0,0,1-3.23,3.22c.29.76.44.56,1.43.54-.29.51-.09.73.3.67a4.22,4.22,0,0,1,2.9.33c.61.32,2.87.33,4.67.88,1.22.36,3.2,3.16,7.23,10.24A14.36,14.36,0,0,0,215.79,478.89Z"/><path class="cls-53" d="M201.22,463.84a5.9,5.9,0,0,0,2.55-.78c.84-.65.45-1.46-.44-1.58a3.37,3.37,0,0,0-1.78.33Z"/><path class="cls-54" d="M201.22,463.84l2.43-4.95-1.25-.47s-2.11,4.62-3,6.28A2.12,2.12,0,0,1,201.22,463.84Z"/><path class="cls-55" d="M203.65,458.89c-.08.21-.42.27-.77.14s-.56-.4-.48-.61.42-.27.77-.14S203.73,458.68,203.65,458.89Z"/><path class="cls-56" d="M202,513.35s0-4.78,1.79-8a6.55,6.55,0,0,0-.48-7.6c-3.82-4.68-4.53-6.2-6-2.64s.46,4.48-2,8.46-5.77,10.54-5.77,10.54S202.11,517.47,202,513.35Z"/><path class="cls-57" d="M244.07,499.39s7.35,13.06,4.79,21.81c-.81,2.79-3.77,5.1-8.28,8.34-5.17,3.71-6.13,7.34-17,8.45-10.33,1-37.75-3.64-44-12.06-5.33-7.23-.36-15.31,6.61-15.31,9.75,0,26.08-.24,25.89-.35Z"/><path class="cls-58" d="M228.42,452.22s5.24,0,7.2,1.69c4.14,3.64,5.79,10.14,6.61,17s-.73,11.87-.73,18.21,4.77,10.44,4.78,15.18c0,8.91-9.73,13.13-16.54,14.41-9.83,1.83-17.64-2.76-20.23-7.15a9.48,9.48,0,0,1,1.36-7.53c1.25-1.81-3.7-15.2-3.72-22.11,0-6.51-1-13.91,3.43-18a22.9,22.9,0,0,1,7.14-4.11C223.41,457.61,228.42,452.22,228.42,452.22Z"/><path class="cls-53" d="M229.75,444.31s-.65,8.84,1,10.78,0,3.75-4.1,4.41c-4.69.74-8.12,1.44-10.32,0,.64-1.39,1.38-10.84,1.38-10.84Z"/><path class="cls-20" d="M233.71,432.83c-2.08-4.43-9.83-9.54-17.22-2.63-7.75,7.24-4.7,21.82,1,22.82,2.9.51,8.69-.91,12.54-4.84C234.37,443.75,235.33,436.27,233.71,432.83Z"/><path class="cls-59" d="M212.1,428.48s1.37,5.82,6.81,8.11c.57,1.9.27,2.91-.78,5,.19.61,1.16,1,1.16,1,1.27-1.82,3.66-2.83,4.54-.8.79,1.83-.32,3.14-1.91,5.06-1.18,5.4,6.43,8.67,6.43,8.67a84.86,84.86,0,0,1,6.74-8.93c3.23-3.55,4.35-11.33-.43-14.9-1.22-5.7-6.53-9-12.08-6.89-2.53,1-4,2-5.7,2.68A11.49,11.49,0,0,1,212.1,428.48Z"/><path class="cls-20" d="M197.67,500.8c2.08.27,2.12,0,3.82-1.6,7.35-7,13.29-18.08,14.85-21.41,1.83-3.93-10.15-4.34-10.15-4.34s-8.67,15.21-12.17,21.21C193.33,495.84,195.89,500.56,197.67,500.8Z"/><path class="cls-60" d="M211.83,490.8c-5.56-1.54-9.66-3.16-13.16-7.92,4.88-11.05,10.35-21.71,15.09-19.63,5.53,2.43,7.91,10.29,4,18.34C216.42,484.25,214.5,488.3,211.83,490.8Z"/><path class="cls-61" d="M214.5,505.1a32.83,32.83,0,0,0,8.64,1.41c3.66-.12,7.62-.7,7.62-.7a9.82,9.82,0,0,1-7.62,3A14.73,14.73,0,0,1,214.5,505.1Z"/><path class="cls-62" d="M228.27,499.39a22,22,0,0,1-6.61,2.41,48.67,48.67,0,0,1-7.16.8,21.52,21.52,0,0,1,6.89-3.21A14.82,14.82,0,0,1,228.27,499.39Z"/><path class="cls-63" d="M230,453.12a7.44,7.44,0,0,1,2.35,3.65c.55,2.23-3.08,5-7.33,5.35a85.39,85.39,0,0,1-11.53-.3s.49-3.57,4.89-4.12,8.45-.44,10.2-1.71A3,3,0,0,0,230,453.12Z"/><path class="cls-20" d="M197.71,492.45s-5.62-7.85-6.6-9.68-.91-3.29-1.17-5.41,1.56-5.07.71-5.63c-2.2-1.43-2.38,2.79-3.19,3.89s-2.69.71-2.69.71-1.27-1.59-2.23-2.88-1.67-2.23-1.67-2.23a12.46,12.46,0,0,0,.65,5.67,29.29,29.29,0,0,0,4.37,7.34c1.35,1.69,2.9,6.64,5.26,10.52s2.6,5.95,6,6.05,4.18-1,4.29-2.95S197.71,492.45,197.71,492.45Z"/><path class="cls-64" d="M272.37,394.69s-1.18-3.77-3.36-3.09a85.84,85.84,0,0,0-13.23,6.7c.45.9,13.81,26.22,13.81,26.22l4.43-2.8Z"/><path class="cls-65" d="M258.89,401.45a6.85,6.85,0,0,0-2-3.08c-1.3-.84-1.93.89-1.29,2.12s2.41,2.93,3.79,5.61c2.41,4.68,10.21,18.42,10.21,18.42l.69-.44Z"/><polygon class="cls-48" points="283.64 418.22 270.16 424.98 258 402.35 271.48 395.59 283.64 418.22"/><polygon class="cls-66" points="284.53 417.32 271.05 424.08 258.89 401.45 272.37 394.69 284.53 417.32"/><polygon class="cls-67" points="258.89 401.45 258 402.35 270.16 424.98 271.05 424.08 258.89 401.45"/><polygon class="cls-51" points="283.64 418.22 284.53 417.32 271.05 424.08 270.16 424.98 283.64 418.22"/><path class="cls-20" d="M274.6,422.3s-7.16-7.48-8.14-9.31-.91-3.28-1.17-5.4,1.56-5.08.71-5.63c-2.2-1.44-2.38,2.78-3.19,3.88s-2.69.72-2.69.72-1.27-1.59-2.23-2.89-1.67-2.22-1.67-2.22a12.39,12.39,0,0,0,.66,5.67,29.15,29.15,0,0,0,4.36,7.34c1.35,1.69,2.9,6.63,5.26,10.52s2.6,5.94,6,6c1.53-.34,4.63-3.17,4.74-5.08S274.6,422.3,274.6,422.3Z"/><polygon class="cls-68" points="274.66 395.16 273.49 397.94 273.02 400.08 274.51 398.48 276.17 395.46 274.66 395.16"/><path class="cls-20" d="M291.14,409.12c1.56-2.24,3.2-4.42,4.74-6.67-3.2-4.52-10.53-9-12.6-11.47-2.35-2.81-4.69-2-6.82.43a28.89,28.89,0,0,1-3.23,3.22c.29.76.44.56,1.43.53-.29.52-.09.73.3.68a4.16,4.16,0,0,1,2.9.33c.61.32,2.87.33,4.67.87,1.22.37,3.2,3.16,7.23,10.25A14.36,14.36,0,0,0,291.14,409.12Z"/><path class="cls-53" d="M276.57,394.07a6,6,0,0,0,2.55-.79c.84-.64.45-1.45-.44-1.58a3.43,3.43,0,0,0-1.78.34Z"/><path class="cls-69" d="M276.57,394.07l2.43-4.95-1.25-.47s-2.11,4.61-3,6.27A2.11,2.11,0,0,1,276.57,394.07Z"/><path class="cls-55" d="M279,389.12c-.08.2-.42.27-.77.14s-.56-.41-.48-.61.42-.28.77-.15S279.08,388.91,279,389.12Z"/><path class="cls-70" d="M313.47,388.71c4.79,4.09,2,12.8,2,12.8s-13.94,1.49-14.73-2.2.4-9.46.4-9.46S308.67,384.62,313.47,388.71Z"/><path class="cls-28" d="M291.62,425.94s-8.53,3.76-16,7.29a14.74,14.74,0,0,0-10,8.45l8.29,4.9s17.18-3.17,19-9.12S291.62,425.94,291.62,425.94Z"/><path class="cls-71" d="M280.22,437.46s1.36-4-4.61-4.23-8.92.92-12.63-.91-4.83-.23-6,2.35.32,8.88,4.1,8.89S280.43,442.62,280.22,437.46Z"/><path class="cls-72" d="M265.63,435.34c3.71.06,11.6.42,17,.92,2.47.22,7.85.35,7.85.35s8.29,3.23,5.55,6.95-9.26,8.55-14.89,7.93-20-7.93-20-7.93l-6.53-3.83S261.59,435.28,265.63,435.34Z"/><path class="cls-28" d="M267.21,437.46s6.71,0,9.88.75a68.48,68.48,0,0,0,10.17,1.25L285,444.35s-.89,1.58-7.42,0A19.76,19.76,0,0,1,267.21,437.46Z"/><path class="cls-73" d="M267.21,437.46c4.34,1.21,10.88,2.81,16.77,4.21,5.3-15.73,25.55-14.55,25.55-14.55s2.65,10.15,4.81,16.6c3.94,11.75-1.59,16.75-7.38,20-3.21,1.78-6.15,5.56-17.51,3.83s-28.72-9.7-32.15-13.77c-4-4.74-7.46-11.07-2.7-14a22.73,22.73,0,0,1,2.56-1.37A14.62,14.62,0,0,1,267.21,437.46Z"/><path class="cls-20" d="M298.25,366c3-2.07,8.71-1.42,11.2,3.83,1.38,2.91-.57,10.73-.88,16.22a13.4,13.4,0,0,0,1.24,7l-3.8,1.57a11.51,11.51,0,0,1-7.76,0l.13-6.75a18.37,18.37,0,0,1-4.09-.37c-1.63-.67-3.39-2.76-2.37-10.75C293.06,367.73,297.16,366.79,298.25,366Z"/><path class="cls-74" d="M305.17,363.15c3.76,1.25,8.31,2.23,8.3,11.05,0,6.71-4,8.94-6.41,14.87-6.28-3-9.33-8-10.34-9-2.26-2.37-4.8-3.29-5.09-6.39C291,367.3,296.9,360.41,305.17,363.15Z"/><path class="cls-20" d="M297.68,378.09a4.13,4.13,0,0,1-2.35,5.05l-1-5.05S296.66,374,297.68,378.09Z"/><path class="cls-75" d="M307.05,363.64l2.48,8.2s-4.85-.37-5-4.1S307.05,363.64,307.05,363.64Z"/><path class="cls-76" d="M317.69,361.19c3,6-2.46,7.36.41,12.21,1.91,3.24,6.55,3.51,6.55,3.51s-2.49,5.36-9.1,2.25c-6.07-2.85-10.17-9.84-9-15.82S315.66,357.14,317.69,361.19Z"/><path class="cls-77" d="M299,392.57c3.43-1,8.8-.58,10-1.75,2.76,1.29,4.09,3.22,5.71,6.34s1.21,8.31-1.23,17.71c-2,7.65-2.52,11.79-2.48,16.24,0,.52.71,3.55.78,4.19-5.06,5.53-17.42,5.92-24.25.57,0-3,1.83-14.63-.14-20.63-3.24-9.91,5.82-19.25,5.82-19.25A11.94,11.94,0,0,1,299,392.57Z"/><path class="cls-9" d="M300.08,391.48a19.75,19.75,0,0,0,9.86-2.41l.55,2.82s-3.69,3.12-8,2.93a57.61,57.61,0,0,1-7.06-.7A5.13,5.13,0,0,1,300.08,391.48Z"/><path class="cls-20" d="M279.54,410.72l-9.26,10.43s-1.09,9.87,2.21,9.87c2.45,0,6.07-3.18,9.11-6.94s6-6.76,6-6.76Z"/><path class="cls-78" d="M284.81,398.82c3.46-3.46,8.18-3.44,10.61-.23,3,4,2.95,9.2,1.3,11.16a36.75,36.75,0,0,1-9.81,7.94l-7.77-5.1S281.46,402.18,284.81,398.82Z"/><path class="cls-9" d="M277.91,412.56l1.76-2.83a12.56,12.56,0,0,0,3.4,4.4,34.49,34.49,0,0,0,5.2,3l-2.43,2s-3.66-1.4-5.35-3.35A28.9,28.9,0,0,1,277.91,412.56Z"/><path class="cls-79" d="M320.25,449.46s-1.17-3.76-3.35-3.09a85.84,85.84,0,0,0-13.23,6.7c.45.9,13.81,26.22,13.81,26.22l4.43-2.8Z"/><path class="cls-80" d="M306.78,456.22a6.81,6.81,0,0,0-2-3.08c-1.29-.84-1.93.89-1.28,2.13s2.41,2.92,3.79,5.6c2.41,4.68,10.21,18.42,10.21,18.42l.69-.44Z"/><polygon class="cls-48" points="331.52 473 318.05 479.75 305.89 457.12 319.36 450.36 331.52 473"/><polygon class="cls-81" points="332.41 472.1 318.94 478.85 306.78 456.22 320.25 449.46 332.41 472.1"/><polygon class="cls-82" points="306.78 456.22 305.89 457.12 318.05 479.75 318.94 478.85 306.78 456.22"/><polygon class="cls-51" points="331.52 473 332.41 472.1 318.94 478.85 318.05 479.75 331.52 473"/><polygon class="cls-83" points="322.55 449.93 321.38 452.71 320.91 454.85 322.4 453.25 324.06 450.23 322.55 449.93"/><path class="cls-20" d="M339,463.89c1.56-2.23,3.2-4.42,4.74-6.67-3.21-4.52-10.54-9-12.6-11.47-2.35-2.8-4.69-1.95-6.82.43a28.89,28.89,0,0,1-3.23,3.22c.29.76.44.56,1.43.53-.29.52-.09.73.3.68a4.22,4.22,0,0,1,2.9.33c.61.32,2.87.33,4.67.87,1.22.37,3.2,3.16,7.23,10.25A14.36,14.36,0,0,0,339,463.89Z"/><path class="cls-53" d="M324.46,448.84a6,6,0,0,0,2.55-.78c.84-.65.45-1.46-.44-1.59a3.49,3.49,0,0,0-1.79.34Z"/><path class="cls-84" d="M324.46,448.84l2.43-4.95-1.25-.47s-2.12,4.61-3,6.28A2.1,2.1,0,0,1,324.46,448.84Z"/><path class="cls-55" d="M326.89,443.89c-.08.21-.42.27-.77.14s-.56-.4-.48-.61.42-.27.77-.14S327,443.68,326.89,443.89Z"/><path class="cls-28" d="M339.5,486.15s-9.1,6.27-15.36,10.54a73.75,73.75,0,0,1-8.28,5.2l8.28,4.91s17.19-3.17,19-9.12S339.5,486.15,339.5,486.15Z"/><path class="cls-85" d="M315.86,495.56c3.71.05,11.6.42,17,.91,2.47.23,7.85.35,7.85.35s8.28,3.23,5.55,6.95-9.27,8.55-14.9,7.94-20-7.94-20-7.94l-6.53-3.83S311.82,495.49,315.86,495.56Z"/><path class="cls-86" d="M363.34,451.56c4.07,3.82,6.15,13.92-.46,19.7s-9.06-18.71-9.06-18.71C356.33,451.35,358.44,447,363.34,451.56Z"/><path class="cls-20" d="M345,424.06c3.12-2.17,9.12-1.49,11.72,4,1.44,3.05-.59,11.24-.91,17a14,14,0,0,0,1.29,7.31l-4,1.64a12,12,0,0,1-8.12,0l.13-7.07s-2.94-.12-3.69-.81c-1.81-1.65-3.92-4.49-3.08-10.83C339.56,425.85,343.8,424.86,345,424.06Z"/><path class="cls-28" d="M317.43,497.68s6.71,0,9.88.75a70,70,0,0,0,10.18,1.25l-2.27,4.88s-.9,1.58-7.43,0A19.71,19.71,0,0,1,317.43,497.68Z"/><path class="cls-87" d="M317.43,497.68c9.67,2.68,30.22,7.33,30.22,7.33s14.75-7.53,16.92-1.07c3.94,11.74-1.59,16.74-7.39,19.95-3.21,1.78-6.15,5.56-17.51,3.84S311,518,307.52,514c-4-4.75-7.46-11.07-2.7-14a21.36,21.36,0,0,1,2.57-1.36A14.54,14.54,0,0,1,317.43,497.68Z"/><path class="cls-88" d="M334.21,474.82c-2.34-5-.71-13.66.79-16.93s9.95-5.71,9.95-5.71l12.23-1.44s7.34,2.37,7.34,13.36c0,6.63-1.1,11.81-2.14,20.14-.29,2.32-1.12,7.79,2.79,17.83a12.43,12.43,0,0,1,.57,2.21c-2,5.55-12.94,11.12-18.09,11-3.43-.06-7.65-.78-10.67-2.93s-4.22-3.35-2.84-9.09C334.57,501.51,339,485.06,334.21,474.82Z"/><path class="cls-89" d="M345,450.17a11.73,11.73,0,0,0,7.71,0l4.08-1.46,1.36,2.9s-.61,2-4.66,3.27a14.68,14.68,0,0,1-11.67-.92C341.81,451.35,345,450.17,345,450.17Z"/><path class="cls-90" d="M350.64,419.64c5.58,0,10.53,4.06,10.53,16.22,0,2.48-2.3,6.7-4.44,8.9-1.07,1.09-2.32,2.25-2.59,3.79-4.33-.5-8.42-7.33-10.79-9.81s-5.22-4.27-6.83-7c-.23-2.41,0-7.4,4.27-7.6C342.53,422,344.05,419.64,350.64,419.64Z"/><path class="cls-20" d="M344.34,436.69a4.32,4.32,0,0,1-2.45,5.29l-1.1-5.29S343.28,432.44,344.34,436.69Z"/><path class="cls-20" d="M337.27,460.58a7.16,7.16,0,0,0-5.89,2.15c-2.19,2.4-10.85,12.72-12.45,14.63-.1,2.44,1.87,6.09,3.55,8.28,4.87-.51,11.07-8,13.58-11.68C339.05,469.63,344,466.05,337.27,460.58Z"/><path class="cls-91" d="M333.52,480.33c3.65-4.47,7.7-9,8.94-14.41,1.48-6.45-.8-8.7-.8-8.7-3.79-2.75-8.66-2.16-13,4.58-1.46,2.27-3.38,5.2-5.17,8.11C324.78,474.76,328.94,478.5,333.52,480.33Z"/><path class="cls-92" d="M365.34,460.85c-1.74-4.76-8.4-8.65-8.62-13.66a3.49,3.49,0,0,1,.35-1.56,29.48,29.48,0,0,1-5.47,1.81c1.74,2.13,1.43,12.65,5.12,20.24,4.09,8.43,1.71,10,1.71,10S370.1,473.88,365.34,460.85Z"/><path class="cls-93" d="M357.79,443.57s.11,3.84-.49,4.48c-.81.87-3.85,1.86-5,1.42a5.7,5.7,0,0,1-2.49-3.26A22.21,22.21,0,0,0,357.79,443.57Z"/><path class="cls-20" d="M322.48,477.07s-7.15-7.48-8.14-9.31-.9-3.28-1.16-5.4,1.55-5.08.71-5.63c-2.2-1.44-2.38,2.78-3.19,3.88s-2.69.72-2.69.72-1.28-1.59-2.24-2.89l-1.66-2.22a12.46,12.46,0,0,0,.65,5.67,29.47,29.47,0,0,0,4.37,7.34c1.35,1.69,2.89,6.63,5.26,10.52s2.6,5.94,6,6,4.17-1,4.29-2.94S322.48,477.07,322.48,477.07Z"/><path class="cls-94" d="M383.81,392.51s4.74,4.83,5.89,6.51.74,3.86-2,6.35-4.45.7-6.66-1.73-8.1-7-9.26-8.95S383.81,392.51,383.81,392.51Z"/><path class="cls-95" d="M402.84,369.63s7.59,6.91,10.25,16.17a20.31,20.31,0,0,1-.07,13.42c-.67,2-5,5.35-10.53,5.35-7-.67-4.64-4.45-8.86-6.88-5.51-3.18-9.14-8.46-12.88-10.15-3.33-1.5-7.28,2.5-12.78,2.12-4.47-.32-11.09-4-13.45-5.91a19,19,0,0,1-5.65-7.29c-1.29-2.63-2.6-4.75-1.68-7.11,1-2.62,2.07-4.66,5.25-5.34,12.3-2.63,28.09-1.15,28.09-1.15S400.46,368.11,402.84,369.63Z"/><path class="cls-96" d="M370.31,348.27c5-10.69,6-26.82,6-26.82l-1.3-2s-5.42-.61-10.2,9.09c-2.81,5.7-4.63,12-7.33,16-4,6-9.05,8.16-13.65,12.15,2,1.06,1.6,8.21,8.15,5.86C363.08,358.58,369,354.63,370.31,348.27Z"/><path class="cls-28" d="M398.77,384.12s-8,.53-12.45.65-8.08,0-8.08,0-6.43-6.19-9.68-9.1a79.78,79.78,0,0,0-6.39-5.14s8.64,2.4,10.25,3.66c1.14-2.61,3.07-6.34,3.07-6.34l15.39,4.47a60.32,60.32,0,0,0-5.56,3.63c-1.83,1.62-1,2.92-1,2.92S394.75,381.52,398.77,384.12Z"/><path class="cls-97" d="M375,319.41s-3.34,1.3-7.06,14.49c-1.22,4.31.75,17.64.79,27.47a7.21,7.21,0,0,0-2.87,2.49s5.72,12.42,22.49,10a75.8,75.8,0,0,1,17.75-.45s.5-1.8-1.68-4.8c-1.74-2.42.85-2.81.68-4-.25-1.65-1.23-2-1.89-4.58-2.5-9.73-.93-24.21-3.07-29.42-1.69-4.11-10.38-7.25-10.38-7.25S382.36,316.52,375,319.41Z"/><path class="cls-53" d="M378.13,320.48l-.48,6.91a18.24,18.24,0,0,0,3.25,3.34c2.49-.78,8.29-6.15,8.29-6.15l-1.93-10.73Z"/><path class="cls-20" d="M390.25,304.09c-1.8-3.8-8.46-8.19-14.81-2.26-6.66,6.23-4,18.76.87,19.62,2.5.44,7.47-.78,10.78-4.16C390.81,313.48,391.64,307.05,390.25,304.09Z"/><path class="cls-98" d="M378,323.15l.61,5.61L374,330.61S373.49,324.63,378,323.15Z"/><path class="cls-98" d="M388.79,322.37a12.62,12.62,0,0,1-4.68,4.47,30.85,30.85,0,0,1-5.55,1.92l1.72,5.14s5.42-2.2,8.08-4.31C388.36,329.59,391.89,325.4,388.79,322.37Z"/><polygon class="cls-48" points="369.28 358.67 368.73 360.83 369.59 366.56 370.05 364.03 369.28 358.67"/><path class="cls-98" d="M343.32,350.82s6.13,3.12,8.14,4.59a6.86,6.86,0,0,1,2.53,3.38s1.39-1.59,5.12-1.51a74.78,74.78,0,0,1,10.17,1.39l-.55,2.16L352,362.55,341,351.9Z"/><polygon class="cls-99" points="340.34 350.95 352.77 360.7 356.1 378.42 343.67 368.67 340.34 350.95"/><polygon class="cls-100" points="352.77 360.7 356.1 378.42 373.39 377.76 370.05 360.04 352.77 360.7"/><polygon class="cls-101" points="353.44 360.3 341.01 350.55 340.34 350.95 352.77 360.7 370.05 360.04 370.31 359.63 353.44 360.3"/><polygon class="cls-102" points="370.31 359.63 370.05 360.04 373.39 377.76 373.65 377.36 370.31 359.63"/><path class="cls-48" d="M345.22,352.7s2.84,1.82,4.29,2.93a32.62,32.62,0,0,1,3.26,3,9.65,9.65,0,0,0-2.95-3.47A21.49,21.49,0,0,0,345.22,352.7Z"/><path class="cls-48" d="M354.43,359.06a9.19,9.19,0,0,1,4.91-.93c2.8.26,6.46.93,6.46.93s-4.7-.31-6.72-.39A27.44,27.44,0,0,0,354.43,359.06Z"/><path class="cls-20" d="M341.42,356.69c-1.26.62-1.08,5,1.46,6.66,2.14,1.43,3.68,0,2.07-3S341.42,356.69,341.42,356.69Z"/><path class="cls-20" d="M375.67,366.74a10.4,10.4,0,0,0-4.55-2.83c.05.29.5,2.65.5,2.65a32.1,32.1,0,0,0-5.82,1c-2.3.67-5.49,1.25-2.28,4.88,1.17,1.32,5.1,2.05,10.44,2.26,2.38.1,8.79-.63,8.79-.63v-5.71S377.18,368.49,375.67,366.74Z"/><path class="cls-103" d="M380.27,368.25c1.61-.21,1.34,3,1.34,5.95,8.05,1.41,18.85-.89,23.35-6.34,1.7-2.06,3.54-2.54,3.76-5.41.62-8-1.56-17.88-2.56-22.25-2.41-10.56-5.18-11.8-9.49-13.32-2.27.74-7.34,3.52-5.79,12,1.94,10.63,2.57,13.94,4.49,19.18-3.82,1.64-9,3.58-10.79,5.09C381.82,365.46,380.27,366.64,380.27,368.25Z"/><path class="cls-104" d="M388.39,299.51c-3.09-6.16-10.33-5.56-14-1.19s-3.38,4.23-6.08,5.8c6,6.27,13.59,3.14,16.31,2.16-1.3,3.79.35,7.39.86,7.33.83-1.58,1.64-1.81,2.3-.91s-.1,4.07-.1,4.07a11.66,11.66,0,0,0,5.36-7.31C393.76,306.29,394.11,301.29,388.39,299.51Z"/><path class="cls-105" d="M366.07,384s-5.35-1.62-7.94-2.6a6.64,6.64,0,0,0-5.63.46,51.26,51.26,0,0,0-8.17,1.38c-3,1-4.1,2.68-4.83,6.18-.66,3.16,7.23,3.64,11.42,3.3s9.31,1.79,12.12.71S366.07,384,366.07,384Z"/><path class="cls-106" d="M410.77,391.42s-17.74-4.77-24.92-6-17.07-4.22-20.8-4.43a12.39,12.39,0,0,0-6.11,7.58c-.94,3.07,1.13,7.45,1.13,7.45s15.34,1,21.18,3.15,17.12,5.91,21.24,5.44C419.17,403.2,410.77,391.42,410.77,391.42Z"/><path class="cls-98" d="M378.56,368l3.47-2.62s1.78.8,2.28,4a15.79,15.79,0,0,1,0,5.4h-5.08S379.77,372.43,378.56,368Z"/></svg>